<?xml version="1.0" encoding="UTF-8" standalone="no"?>
<svg
   xmlns:dc="http://purl.org/dc/elements/1.1/"
   xmlns:cc="http://creativecommons.org/ns#"
   xmlns:rdf="http://www.w3.org/1999/02/22-rdf-syntax-ns#"
   xmlns:svg="http://www.w3.org/2000/svg"
   xmlns="http://www.w3.org/2000/svg"
   xmlns:sodipodi="http://sodipodi.sourceforge.net/DTD/sodipodi-0.dtd"
   xmlns:inkscape="http://www.inkscape.org/namespaces/inkscape"
   enable-background="new 0 0 32 32"
   version="1.1"
   viewBox="0 0 32 32"
   xml:space="preserve"
   id="svg17"
   sodipodi:docname="1011335_email_envelope_mail_message_send_icon.svg"
   inkscape:version="0.92.3 (2405546, 2018-03-11)"><metadata
     id="metadata23"><rdf:RDF><cc:Work
         rdf:about=""><dc:format>image/svg+xml</dc:format><dc:type
           rdf:resource="http://purl.org/dc/dcmitype/StillImage" /></cc:Work></rdf:RDF></metadata><defs
     id="defs21" /><sodipodi:namedview
     pagecolor="#ffffff"
     bordercolor="#666666"
     borderopacity="1"
     objecttolerance="10"
     gridtolerance="10"
     guidetolerance="10"
     inkscape:pageopacity="0"
     inkscape:pageshadow="2"
     inkscape:window-width="1920"
     inkscape:window-height="1017"
     id="namedview19"
     showgrid="false"
     inkscape:zoom="20.85965"
     inkscape:cx="7.9622034"
     inkscape:cy="27.571526"
     inkscape:window-x="-8"
     inkscape:window-y="1072"
     inkscape:window-maximized="1"
     inkscape:current-layer="Style_2" /><g
     id="Style_2"><g
       id="g4"
       style="fill:none"><path
         d="M16,0C7.163,0,0,7.163,0,16c0,8.836,7.163,16,16,16s16-7.164,16-16C32,7.163,24.837,0,16,0z"
         fill="#333333"
         id="path2"
         style="fill:none" /></g><g
       id="g14"
       style="fill:none"><polygon
         fill="#FFFFFF"
         points="6.518,21.815 11.707,15.291 6.518,12.119   "
         id="polygon6"
         style="fill:none" /><polygon
         fill="#FFFFFF"
         points="19.5,15.746 15.989,17.908 12.472,15.758 7.11,22.5 24.867,22.5   "
         id="polygon8"
         style="fill:none" /><polygon
         fill="#FFFFFF"
         points="15.988,16.864 25.482,11.017 25.482,9.5 6.518,9.5 6.518,11.076   "
         id="polygon10"
         style="fill:none" /><polygon
         fill="#FFFFFF"
         points="20.263,15.276 25.482,21.843 25.482,12.062   "
         id="polygon12"
         style="fill:none" /></g><path
       style="opacity:1;fill:#000000;fill-opacity:1;fill-rule:nonzero;stroke:none;stroke-width:0.51247835;stroke-linecap:butt;stroke-linejoin:miter;stroke-miterlimit:4;stroke-dasharray:none;stroke-dashoffset:0;stroke-opacity:1;paint-order:fill markers stroke"
       d="M 14.607322,31.844206 C 11.687516,31.625463 8.6715661,30.450805 6.2550833,28.591163 5.2698469,27.83296 3.5196914,25.978994 2.8288975,24.961756 1.9716811,23.699448 0.98803699,21.544378 0.56419075,20 0.21749426,18.736734 0.19206254,18.463368 0.19206254,16 c 0,-2.463368 0.0254317,-2.736734 0.37212821,-4 C 0.98836492,10.454427 1.9713588,8.3013721 2.8318226,7.0331985 3.775318,5.6426511 5.7214621,3.7309219 7.1873862,2.7546576 9.9342435,0.92532739 12.681778,0.11401871 16.108475,0.12038462 c 4.266886,0.007927 8.115052,1.60819248 11.118644,4.62370498 6.265893,6.2907624 6.265893,16.2210584 0,22.5118214 -1.727326,1.734181 -3.659923,2.95065 -5.996627,3.774564 -2.083788,0.734736 -4.202689,0.995067 -6.62317,0.813731 z m 9.88595,-9.912003 c -2.392269,-3.053034 -4.772991,-6.021383 -4.90373,-6.114103 -0.102456,-0.07266 -0.762132,0.259755 -1.816311,0.915255 -0.910481,0.566146 -1.706426,1.029357 -1.768766,1.029357 -0.06234,0 -0.861733,-0.457627 -1.776428,-1.016949 -0.914696,-0.559322 -1.704774,-1.014038 -1.755729,-1.01048 -0.05096,0.0036 -0.580783,0.625019 -1.177393,1.381026 -0.59661,0.756006 -1.8023658,2.278518 -2.6794574,3.383362 l -1.5947117,2.008804 h 8.9620381 8.962038 z M 9.1924724,18.563132 C 10.620238,16.766075 11.7689,15.276357 11.745053,15.252647 11.676401,15.184391 7.1253064,12.401996 6.7864407,12.221109 L 6.4813559,12.058255 v 4.886127 c 0,2.68737 0.025915,4.886126 0.057589,4.886126 0.031674,0 1.2257613,-1.47032 2.6535275,-3.267376 z M 25.6,16.949153 c 0,-3.072219 -0.04888,-4.881356 -0.131881,-4.881356 -0.09565,0 -5.008313,2.971571 -5.257521,3.180166 -0.06475,0.0542 5.171612,6.582545 5.279833,6.582545 0.06026,0 0.109569,-2.19661 0.109569,-4.881355 z m -5.186968,-2.729708 c 2.442663,-1.501339 4.609002,-2.847867 4.814087,-2.992284 C 25.555908,10.995634 25.6,10.877492 25.6,10.228055 V 9.4915254 H 16.034207 6.4684156 l 0.040368,0.8377606 0.040368,0.837761 4.6779664,2.877851 c 2.572881,1.582817 4.692983,2.883791 4.711337,2.891052 0.01835,0.0073 2.031913,-1.215166 4.474577,-2.716505 z"
       id="path4535"
       inkscape:connector-curvature="0" /><path
       style="opacity:1;fill:none;fill-opacity:1;fill-rule:nonzero;stroke:none;stroke-width:0.51247835;stroke-linecap:butt;stroke-linejoin:miter;stroke-miterlimit:4;stroke-dasharray:none;stroke-dashoffset:0;stroke-opacity:1;paint-order:fill markers stroke"
       d="M 11.311044,13.927198 6.6169492,11.059194 V 10.343156 9.6271186 h 9.4237288 9.423729 v 0.6619794 0.661979 l -3.694915,2.275657 c -2.032204,1.251611 -4.160539,2.566539 -4.729634,2.922062 l -1.034719,0.646406 z"
       id="path820"
       inkscape:connector-curvature="0" /><path
       style="opacity:1;fill:none;fill-opacity:1;fill-rule:nonzero;stroke:none;stroke-width:0.51247835;stroke-linecap:butt;stroke-linejoin:miter;stroke-miterlimit:4;stroke-dasharray:none;stroke-dashoffset:0;stroke-opacity:1;paint-order:fill markers stroke"
       d="m 9.8819878,19.11913 c 2.4158022,-3.040649 2.6042382,-3.243516 2.8771302,-3.097469 0.160609,0.08596 0.918242,0.543364 1.683628,1.016463 0.765386,0.4731 1.461594,0.860181 1.547128,0.860181 0.08554,0 0.86416,-0.434694 1.730279,-0.965987 0.866119,-0.531293 1.618959,-0.991553 1.672976,-1.0228 0.05402,-0.03125 1.1772,1.303447 2.49596,2.965987 1.318759,1.66254 2.489105,3.12958 2.600767,3.260088 0.19305,0.225633 -0.224222,0.237288 -8.49498,0.237288 H 7.2968749 Z"
       id="path822"
       inkscape:connector-curvature="0" /><path
       style="opacity:1;fill:none;fill-opacity:1;fill-rule:nonzero;stroke:none;stroke-width:0.51247835;stroke-linecap:butt;stroke-linejoin:miter;stroke-miterlimit:4;stroke-dasharray:none;stroke-dashoffset:0;stroke-opacity:1;paint-order:fill markers stroke"
       d="m 6.6169492,16.958475 c 0,-2.54072 0.028241,-4.619492 0.062759,-4.619492 0.1586631,0 4.8185968,2.904104 4.8185968,3.002984 0,0.06156 -1.098305,1.489844 -2.4406775,3.173964 l -2.440678,3.062036 z"
       id="path824"
       inkscape:connector-curvature="0" /><path
       style="opacity:1;fill:none;fill-opacity:1;fill-rule:nonzero;stroke:none;stroke-width:0.51247835;stroke-linecap:butt;stroke-linejoin:miter;stroke-miterlimit:4;stroke-dasharray:none;stroke-dashoffset:0;stroke-opacity:1;paint-order:fill markers stroke"
       d="m 22.921082,18.509144 c -1.36154,-1.712481 -2.459845,-3.159545 -2.440678,-3.215698 0.01917,-0.05615 1.133155,-0.775712 2.475528,-1.599022 l 2.440678,-1.496927 0.03706,2.384574 c 0.02038,1.311516 0.02038,3.432197 0,4.712625 l -0.03706,2.328051 z"
       id="path826"
       inkscape:connector-curvature="0" /></g></svg>