<?xml version="1.0" encoding="UTF-8" standalone="no"?>
<svg
   xmlns:dc="http://purl.org/dc/elements/1.1/"
   xmlns:cc="http://creativecommons.org/ns#"
   xmlns:rdf="http://www.w3.org/1999/02/22-rdf-syntax-ns#"
   xmlns:svg="http://www.w3.org/2000/svg"
   xmlns="http://www.w3.org/2000/svg"
   xmlns:sodipodi="http://sodipodi.sourceforge.net/DTD/sodipodi-0.dtd"
   xmlns:inkscape="http://www.inkscape.org/namespaces/inkscape"
   enable-background="new 0 0 56.693 56.693"
   height="56.693px"
   id="Layer_1"
   version="1.1"
   viewBox="0 0 56.693 56.693"
   width="56.693px"
   xml:space="preserve"
   sodipodi:docname="104461_twitter_icon.svg"
   inkscape:version="0.92.3 (2405546, 2018-03-11)"><metadata
     id="metadata9"><rdf:RDF><cc:Work
         rdf:about=""><dc:format>image/svg+xml</dc:format><dc:type
           rdf:resource="http://purl.org/dc/dcmitype/StillImage" /></cc:Work></rdf:RDF></metadata><defs
     id="defs7" /><sodipodi:namedview
     pagecolor="#ffffff"
     bordercolor="#666666"
     borderopacity="1"
     objecttolerance="10"
     gridtolerance="10"
     guidetolerance="10"
     inkscape:pageopacity="0"
     inkscape:pageshadow="2"
     inkscape:window-width="1920"
     inkscape:window-height="1017"
     id="namedview5"
     showgrid="false"
     inkscape:snap-bbox="true"
     inkscape:bbox-nodes="true"
     inkscape:snap-object-midpoints="true"
     inkscape:snap-page="true"
     inkscape:zoom="4.1627714"
     inkscape:cx="-3.6033687"
     inkscape:cy="28.3465"
     inkscape:window-x="-4"
     inkscape:window-y="-8"
     inkscape:window-maximized="1"
     inkscape:current-layer="Layer_1" /><path
     d="M 28.347651,0 C 12.69169,0 0,12.693992 0,28.347651 c 0,15.655963 12.69169,28.34535 28.347651,28.34535 15.655963,0 28.34535,-12.689387 28.34535,-28.34535 C 56.693001,12.693992 44.002463,0 28.347651,0 Z m 14.279158,22.632075 c 0.01497,0.306212 0.02072,0.613575 0.02072,0.924392 0,9.440774 -7.185626,20.325122 -20.325121,20.325122 -4.033713,0 -7.789994,-1.182256 -10.951117,-3.208321 0.559471,0.06561 1.126999,0.099 1.703737,0.099 3.347614,0 6.428155,-1.141965 8.872096,-3.057517 -3.125436,-0.0587 -5.762775,-2.125067 -6.672202,-4.96271 0.435144,0.08518 0.88295,0.12778 1.34342,0.12778 0.651564,0 1.282406,-0.08518 1.882168,-0.249804 -3.269332,-0.656169 -5.731694,-3.545615 -5.731694,-7.00374 0,-0.03108 0,-0.06101 0.0012,-0.09209 0.96238,0.535295 2.064054,0.856473 3.235949,0.894462 -1.917855,-1.283558 -3.178391,-3.467336 -3.178391,-5.946963 0,-1.308885 0.35226,-2.537187 0.966986,-3.591662 3.523743,4.321507 8.78806,7.166056 14.725814,7.463059 -0.122024,-0.521481 -0.18534,-1.068289 -0.18534,-1.627759 0,-3.943921 3.197962,-7.143033 7.144185,-7.143033 2.054844,0 3.910537,0.867985 5.213665,2.25515 1.62776,-0.318875 3.156519,-0.915185 4.536776,-1.733668 -0.535296,1.669202 -1.666899,3.069028 -3.142704,3.951979 1.447025,-0.172676 2.823829,-0.557169 4.103933,-1.124697 -0.955474,1.435514 -2.16766,2.693746 -3.564033,3.701024 z"
     id="path2"
     inkscape:connector-curvature="0"
     style="stroke-width:1.15117371" /></svg>